<svg width="24" height="24" viewBox="0 0 24 24" xmlns="http://www.w3.org/2000/svg"><g clip-path="url(#clip0_17290_9770)"><path d="M17.3 2C16.4752 1.12543 15.3861 0.545762 14.2 0.350004C12.6807 0.0923187 11.1408 -0.0248432 9.6 3.80678e-06C8.05926 -0.0218442 6.51969 0.0952969 5 0.350004C3.8591 0.591948 2.81529 1.16604 2 2C1.14018 2.83599 0.563269 3.91989 0.349997 5.1C0.0713335 6.61669 -0.0459869 8.15862 -3.16743e-06 9.7C-0.0459869 11.2414 0.0713335 12.7833 0.349997 14.3C0.578518 15.4748 1.15314 16.5544 2 17.4C2.82133 18.2162 3.86466 18.7726 5 19C6.51505 19.2943 8.05688 19.4284 9.6 19.4H10.65C10.5154 18.8434 10.4483 18.2726 10.45 17.7V17.45H9.6C8.22461 17.4848 6.84959 17.3674 5.5 17.1C4.92509 17.0361 4.37517 16.8299 3.9 16.5C3.75274 16.4182 3.62644 16.3034 3.53101 16.1646C3.43559 16.0258 3.37363 15.8668 3.35 15.7C3.28443 15.3533 3.35615 14.9948 3.55 14.7C3.93306 14.0853 4.48989 13.5981 5.15 13.3C6.56825 12.7588 8.08407 12.5203 9.6 12.6C10.5205 12.5933 11.4401 12.6602 12.35 12.8L12.55 12.5C13.2312 11.8185 14.0427 11.2813 14.9362 10.9205C15.8296 10.5597 16.7866 10.3827 17.75 10.4C18.2537 10.4004 18.7562 10.4506 19.25 10.55V9.7C19.296 8.15862 19.1787 6.61669 18.9 5.1C18.7006 3.92591 18.1415 2.84271 17.3 2V2ZM13.45 7.8C13.4568 8.30531 13.358 8.80647 13.16 9.2714C12.962 9.73633 12.6691 10.1548 12.3 10.5C11.9571 10.8721 11.5391 11.167 11.0736 11.3653C10.6081 11.5635 10.1058 11.6606 9.6 11.65C9.09416 11.6606 8.59185 11.5635 8.12636 11.3653C7.66088 11.167 7.24285 10.8721 6.9 10.5C6.52459 10.1491 6.22795 9.72256 6.02971 9.24849C5.83146 8.77442 5.73612 8.26367 5.75 7.75C5.74338 7.08331 5.91607 6.42709 6.25 5.85C6.39304 5.53112 6.61715 5.2553 6.9 5.05C7.24285 4.67794 7.66088 4.383 8.12636 4.18474C8.59185 3.98647 9.09416 3.88942 9.6 3.9C10.3825 3.8868 11.1503 4.11365 11.8 4.55C11.9837 4.69868 12.1513 4.86626 12.3 5.05C12.6721 5.39286 12.967 5.81089 13.1653 6.27637C13.3635 6.74186 13.4606 7.24417 13.45 7.75V7.8Z"></path><path d="M24 17.7C24.0091 16.879 23.8496 16.065 23.5314 15.3081C23.2131 14.5513 22.743 13.8678 22.15 13.3C21.5896 12.6941 20.9086 12.212 20.1509 11.8848C19.3931 11.5576 18.5753 11.3925 17.75 11.4C16.917 11.3904 16.0911 11.5544 15.325 11.8815C14.5588 12.2087 13.8692 12.6917 13.3 13.3C12.7203 13.8752 12.2622 14.5612 11.9529 15.3171C11.6437 16.073 11.4897 16.8834 11.5 17.7C11.4907 18.5257 11.6457 19.345 11.9559 20.1103C12.266 20.8755 12.7253 21.5715 13.3068 22.1577C13.8884 22.7439 14.5807 23.2087 15.3434 23.525C16.1062 23.8412 16.9243 24.0027 17.75 24C18.571 24.0091 19.385 23.8496 20.1419 23.5314C20.8987 23.2131 21.5822 22.743 22.15 22.15C22.7492 21.5764 23.223 20.8848 23.5414 20.1189C23.8598 19.353 24.016 18.5293 24 17.7ZM21.45 14.05C21.9436 14.5205 22.3358 15.0871 22.6023 15.7148C22.8689 16.3425 23.0042 17.0181 23 17.7C23.0248 18.3984 22.9064 19.0946 22.652 19.7455C22.3975 20.3964 22.0126 20.9884 21.5207 21.4849C21.0289 21.9814 20.4406 22.372 19.7921 22.6326C19.1436 22.8931 18.4486 23.0182 17.75 23C17.0633 23.0175 16.3804 22.8934 15.7438 22.6353C15.1072 22.3773 14.5306 21.9908 14.05 21.5C13.543 21.0081 13.1435 20.4165 12.8768 19.7624C12.61 19.1084 12.4817 18.4061 12.5 17.7C12.4904 17.0173 12.6232 16.34 12.8901 15.7116C13.157 15.0831 13.5521 14.5172 14.05 14.05C14.5159 13.5336 15.0875 13.1234 15.7259 12.8474C16.3643 12.5713 17.0546 12.4358 17.75 12.45C18.444 12.4453 19.1314 12.5851 19.7684 12.8606C20.4054 13.1361 20.9781 13.5411 21.45 14.05V14.05ZM20.85 17.7C20.8519 17.6075 20.8352 17.5156 20.8008 17.4297C20.7664 17.3438 20.7152 17.2657 20.65 17.2C20.5761 17.132 20.4894 17.0793 20.395 17.0449C20.3006 17.0106 20.2003 16.9953 20.1 17H18.5V15.4C18.5019 15.3075 18.4851 15.2156 18.4508 15.1297C18.4164 15.0438 18.3652 14.9657 18.3 14.9C18.2368 14.8118 18.1546 14.739 18.0593 14.687C17.9641 14.6351 17.8584 14.6053 17.75 14.6C17.6414 14.5851 17.5309 14.5955 17.4271 14.6304C17.3232 14.6654 17.2288 14.7239 17.1514 14.8014C17.0739 14.8788 17.0154 14.9732 16.9804 15.0771C16.9455 15.1809 16.9351 15.2914 16.95 15.4V17H15.4C14.87 17 14.6 17.25 14.6 17.75C14.5851 17.8586 14.5955 17.9691 14.6304 18.0729C14.6654 18.1768 14.7239 18.2712 14.8014 18.3486C14.8788 18.4261 14.9732 18.4846 15.0771 18.5196C15.1809 18.5545 15.2914 18.5649 15.4 18.55H17V20.1C16.9851 20.2086 16.9955 20.3191 17.0304 20.4229C17.0654 20.5268 17.1239 20.6212 17.2013 20.6987C17.2788 20.7761 17.3732 20.8346 17.4771 20.8696C17.5809 20.9045 17.6914 20.9149 17.8 20.9C18.3 20.9 18.55 20.63 18.55 20.1V18.5H20.15C20.6 18.5 20.85 18.23 20.85 17.7V17.7Z"></path></g><defs><clipPath id="clip0_17290_9770"><rect width="24" height="24"></rect></clipPath></defs></svg>