<svg width="24" height="24" viewBox="0 0 24 24" xmlns="http://www.w3.org/2000/svg"><g clip-path="url(#clip0_17286_9736)"><path d="M14.8 4.34798H13.25C12.15 4.34798 11.0833 4.54756 10.05 4.94673C9.08333 5.3459 8.21667 5.9114 7.45 6.64321C6.68333 7.37502 6.08333 8.22325 5.65 9.18791C5.21667 10.1858 4.98333 11.217 4.95 12.2815L4.85 15.3751C4.85 15.5414 4.9 15.6744 5 15.7742C5.1 15.9073 5.21667 15.9904 5.35 16.0237C5.45 16.057 5.53333 16.057 5.6 16.0237C5.7 16.0237 5.78333 15.9904 5.85 15.9239C5.95 15.8906 6.03333 15.8241 6.1 15.7243L7.25 13.7285C7.58333 13.0965 8.01667 12.5476 8.55 12.0819C9.05 11.6162 9.61667 11.2337 10.25 10.9343C10.8833 10.6349 11.55 10.4187 12.25 10.2856C12.95 10.1858 13.65 10.1858 14.35 10.2856L14.8 10.3854C14.8333 11.2836 14.8833 12.1983 14.95 13.1297L15.05 14.2773C15.05 14.4104 15.0833 14.5268 15.15 14.6266C15.2167 14.7597 15.3 14.8761 15.4 14.9759C15.5 15.0424 15.6167 15.0923 15.75 15.1256C15.8833 15.1921 16.0167 15.2087 16.15 15.1755C16.2833 15.1755 16.4167 15.1256 16.55 15.0258C17.85 14.1942 19.0833 13.2628 20.25 12.2316C21.3833 11.1671 22.4 10.0029 23.3 8.73885L23.9 7.94051C23.9667 7.84071 24 7.72429 24 7.59123C24 7.45818 23.9667 7.32512 23.9 7.19206L23.3 6.39373C22.4 5.16295 21.3833 4.01534 20.25 2.95088C19.0833 1.88643 17.85 0.938402 16.55 0.106798C16.3833 0.0402695 16.2167 -0.00962829 16.05 -0.0428925C15.8833 -0.0428925 15.7333 -0.00962221 15.6 0.0569061C15.4333 0.156699 15.3 0.273122 15.2 0.406178C15.1 0.539235 15.05 0.688921 15.05 0.855241L14.95 2.00286C14.8833 2.8012 14.8333 3.5829 14.8 4.34798ZM6.55 0.505969C4.81667 0.871875 3.46667 1.55379 2.5 2.55172C1.5 3.51638 0.816667 4.86357 0.45 6.59331C0.15 7.92388 0 9.72014 0 11.9821C0 14.2773 0.15 16.0902 0.45 17.4208V17.4707C0.816667 19.2004 1.5 20.5476 2.5 21.5123V21.4624C3.43333 22.4936 4.78333 23.1921 6.55 23.558C7.88333 23.8241 9.7 23.9572 12 23.9572C14.2667 23.9572 16.0667 23.8241 17.4 23.558C19.1333 23.1921 20.4833 22.5102 21.45 21.5123C21.45 21.479 21.4667 21.4624 21.5 21.4624C22.5 20.4977 23.1833 19.1505 23.55 17.4208C23.85 15.9239 24 14.111 24 11.9821C24 11.6827 24 11.4 24 11.1339C23.3667 11.8989 22.7 12.6308 22 13.3293C21.9333 14.7264 21.8 15.9572 21.6 17.0216C21.3333 18.3189 20.8333 19.3335 20.1 20.0653L20.05 20.1152C19.3167 20.847 18.3 21.346 17 21.6121C15.7333 21.8449 14.0667 21.9614 12 21.9614C9.9 21.9614 8.21667 21.8449 6.95 21.6121C5.65 21.346 4.65 20.847 3.95 20.1152V20.0653H3.9C3.16667 19.3335 2.66667 18.3189 2.4 17.0216C2.13333 15.7576 2 14.0777 2 11.9821C2 9.91973 2.13333 8.25652 2.4 6.99248C2.66667 5.69518 3.16667 4.69725 3.9 3.99871V3.94881H3.95C4.65 3.217 5.65 2.71803 6.95 2.45192C8.35 2.15254 10.0333 2.00286 12 2.00286C12.2667 2.00286 12.6167 2.00286 13.05 2.00286C13.0833 1.57042 13.15 0.921774 13.25 0.0569061C12.85 0.023642 12.4333 0.00700683 12 0.00700683C9.9 0.00700683 8.08333 0.173328 6.55 0.505969Z"></path></g><defs><clipPath id="clip0_17286_9736"><rect width="24" height="24"></rect></clipPath></defs></svg>