<svg xmlns="http://www.w3.org/2000/svg" width="24" height="24" viewBox="0 0 24 24" fill="none">
<path d="M12.3695 7.26105C10.7142 7.26105 9.09601 7.75191 7.71965 8.67156C6.3433 9.59122 5.27056 10.8984 4.63709 12.4277C4.00363 13.957 3.83788 15.6398 4.16082 17.2634C4.48376 18.8869 5.28088 20.3782 6.45137 21.5487C7.62186 22.7192 9.11316 23.5163 10.7367 23.8392C12.3602 24.1622 14.043 23.9964 15.5724 23.363C17.1017 22.7295 18.4088 21.6568 19.3285 20.2804C20.2481 18.904 20.739 17.2859 20.739 15.6306C20.739 13.4108 19.8572 11.282 18.2876 9.71242C16.718 8.14283 14.5892 7.26105 12.3695 7.26105ZM12.3695 23.1229H12.4571H12.3695ZM14.7538 12.719C11.8818 12.8976 10.7154 9.51422 13.3132 9.35276C16.0811 9.17878 17.5632 12.5424 14.7538 12.719Z" fill="#FEFEFE"/>
<path d="M7.72958 7.61492C8.9596 6.85566 10.3662 6.43001 11.8109 6.37992C11.6481 5.84612 11.0695 3.5969 12.1173 1.4182C10.1291 2.92009 10.4757 5.22335 10.4757 5.22335C10.4757 5.22335 9.22686 1.98166 7.60503 0C7.38624 2.55105 8.18562 5.93113 8.18562 5.93113C8.18562 5.93113 7.17008 3.83547 4.68164 3.71816C6.74567 4.90439 7.54638 7.04157 7.72958 7.61492Z" fill="#FEFEFE"/>
</svg>