<svg width="24" height="24" viewBox="0 0 24 24" xmlns="http://www.w3.org/2000/svg"><path d="M7.23144 19.1266C7.1965 19.1266 7.17904 19.1441 7.17904 19.179V20.4367L7.28384 20.4891C7.35371 20.524 7.40611 20.5415 7.44105 20.5415C8.17467 20.786 8.94323 20.9258 9.74672 20.9607C10.0262 20.9607 10.3231 20.9782 10.6376 21.0131C10.4629 20.1048 10.3755 19.0218 10.3755 17.7642C10.3755 17.4148 10.393 17.083 10.4279 16.7686L7.23144 19.1266ZM6.34061 19.179C6.30568 19.1441 6.27074 19.1092 6.23581 19.0742L2.8821 16.1397C2.84716 16.1397 2.82969 16.1223 2.82969 16.0873L1.88646 16.4017H1.83406V16.4541C2.14847 16.9083 2.49782 17.3275 2.8821 17.7118C3.19651 18.0611 3.52838 18.3581 3.87773 18.6026C4.64629 19.2314 5.46725 19.738 6.34061 20.1223V19.179ZM3.72052 11.8428C3.68559 11.8428 3.66812 11.8603 3.66812 11.8952L3.30131 15.4585V15.5109H3.35371L6.65502 18.393C6.65502 18.4279 6.67249 18.4454 6.70742 18.4454L6.75982 18.393L9.90393 16.0873L9.95633 16.0349C9.95633 16 9.95633 15.9651 9.95633 15.9301L7.91266 12.262H7.86026C7.86026 12.2271 7.84279 12.2096 7.80786 12.2096L3.77292 11.8428H3.72052ZM1.67686 7.23144H1.62445L0.524017 7.38864C0.349345 7.91266 0.209607 8.43668 0.104803 8.9607C0.0349345 9.48471 0 10.0087 0 10.5327C0 11.3712 0.104803 12.1747 0.31441 12.9432C0.524017 13.7817 0.803493 14.5677 1.15284 15.3013C1.25764 15.441 1.34498 15.5808 1.41485 15.7205C1.41485 15.7555 1.43231 15.7729 1.46725 15.7729L2.62009 15.4061V15.3537L2.9869 11.8428C2.9869 11.7729 3.02183 11.6856 3.0917 11.5808L1.67686 7.23144ZM3.93013 2.9345V2.82969L3.77292 2.46288L3.66812 2.56768C3.59825 2.60262 3.54585 2.67249 3.51092 2.77729C3.37118 2.84716 3.24891 2.9345 3.1441 3.0393L3.0917 3.0917C3.02183 3.16157 2.96943 3.21397 2.9345 3.24891L2.8821 3.30131C2.77729 3.44105 2.68996 3.56332 2.62009 3.66812L2.46288 3.77292C2.28821 3.98253 2.131 4.19214 1.99127 4.40175L1.88646 4.50655C1.78166 4.64629 1.69432 4.80349 1.62445 4.97816C1.58952 5.0131 1.55458 5.0655 1.51965 5.13537L1.46725 5.18777C1.39738 5.32751 1.32751 5.46725 1.25764 5.60699C1.18777 5.71179 1.13537 5.79913 1.10044 5.86899C1.03057 6.00873 0.960698 6.16594 0.890829 6.34061L0.838428 6.39301C0.838428 6.42795 0.838428 6.46288 0.838428 6.49781V6.55022L1.72926 6.39301H1.78166L3.93013 2.9345ZM8.90829 3.51092C8.90829 3.47598 8.89083 3.44105 8.85589 3.40611H4.50655L2.46288 6.75982C2.42795 6.79476 2.39301 6.82969 2.35808 6.86463V6.91703L3.72052 11.1092C3.79039 11.1092 3.86026 11.1092 3.93013 11.1092L7.96506 11.5284C8 11.5284 8.01747 11.5458 8.01747 11.5808L8.06987 11.5284L10.2707 6.91703C10.2009 6.84716 10.1485 6.79476 10.1135 6.75982C10.0786 6.68995 10.0437 6.62009 10.0087 6.55022L8.90829 3.51092ZM15.2489 7.54585L10.952 7.17904L8.64629 12L10.5327 15.4061C10.7074 13.6943 11.1266 12.4891 11.7904 11.7904C12.6288 10.952 14.2882 10.4978 16.7686 10.4279L15.3537 7.54585C15.3188 7.54585 15.2838 7.54585 15.2489 7.54585ZM12.3668 0.943231V0.157205C11.7729 0.0524017 11.1616 0 10.5327 0C9.9738 0 9.43231 0.0349345 8.90829 0.104803C8.38428 0.209607 7.84279 0.349345 7.28384 0.524017C6.79476 0.69869 6.30568 0.890829 5.81659 1.10044C5.36244 1.37991 4.9083 1.65939 4.45415 1.93886L4.61135 2.62009V2.67249H9.0131C9.04803 2.60262 9.08297 2.55022 9.1179 2.51528C9.18777 2.48035 9.24017 2.46288 9.27511 2.46288L12.3668 0.943231ZM17.8166 2.9869C17.8166 2.95196 17.7991 2.9345 17.7642 2.9345L17.7118 2.8821L16.9782 3.1441C16.9782 3.24891 16.9607 3.33624 16.9258 3.40611L16.1921 6.86463C16.1572 6.9345 16.1397 7.00437 16.1397 7.07423C16.1048 7.10917 16.0699 7.16157 16.0349 7.23144L17.607 10.3755C17.6419 10.3755 17.6943 10.3755 17.7642 10.3755C18.9869 10.3755 20.0524 10.4629 20.9607 10.6376C20.9607 10.6026 20.9607 10.5677 20.9607 10.5327C20.9607 9.86899 20.9258 9.2227 20.8559 8.59388C20.7162 7.93013 20.524 7.30131 20.2795 6.70742C20.0699 6.11354 19.7904 5.53712 19.441 4.97816C19.0917 4.45415 18.69 3.9476 18.2358 3.45851C18.131 3.28384 17.9913 3.12664 17.8166 2.9869ZM16.5065 2.51528L17.0306 2.30568C16.4716 1.85153 15.8603 1.44978 15.1965 1.10044C14.5327 0.786026 13.8515 0.541485 13.1528 0.366812V0.838428C13.1878 0.838428 13.2227 0.838428 13.2576 0.838428L16.4541 2.46288H16.5065V2.51528ZM9.53712 3.0917C9.53712 3.12664 9.53712 3.16157 9.53712 3.19651L9.58952 3.0393C9.55458 3.0393 9.53712 3.05677 9.53712 3.0917ZM16.1921 3.19651C16.1921 3.16157 16.1747 3.1441 16.1397 3.1441C16.1397 3.10917 16.1223 3.0917 16.0873 3.0917L12.8384 1.46725L9.53712 3.19651L10.7424 6.28821V6.34061H10.7948L15.3013 6.75982C15.3362 6.75982 15.3537 6.74236 15.3537 6.70742C15.3886 6.70742 15.4061 6.68995 15.4061 6.65502L16.1921 3.19651ZM24 17.7642C24 16.6114 23.9127 15.6332 23.738 14.8297C23.4934 13.9214 23.1441 13.2576 22.69 12.8384C22.2707 12.3493 21.5895 12 20.6463 11.7904C19.8777 11.6157 18.917 11.5284 17.7642 11.5284C16.5764 11.5284 15.5808 11.6157 14.7773 11.7904C13.869 12 13.2052 12.3493 12.786 12.8384C12.2969 13.2576 11.9476 13.9214 11.738 14.8297C11.5983 15.4934 11.5284 16.4716 11.5284 17.7642C11.5284 19.0917 11.5983 20.0699 11.738 20.6987C11.9476 21.6419 12.2969 22.3231 12.786 22.7424C13.2052 23.1965 13.869 23.5284 14.7773 23.738C15.441 23.9127 16.4367 24 17.7642 24C19.0568 24 20.0175 23.9127 20.6463 23.738C21.5895 23.5284 22.2707 23.1965 22.69 22.7424C23.1441 22.3231 23.4934 21.6419 23.738 20.6987C23.9127 19.9301 24 18.952 24 17.7642ZM22.3755 20.4367C22.2358 21.0306 22.0262 21.4847 21.7467 21.7991C21.4323 22.0786 20.9782 22.2882 20.3843 22.4279C19.7555 22.5327 18.8821 22.5851 17.7642 22.5851C16.5764 22.5851 15.6856 22.5327 15.0917 22.4279C14.4978 22.2882 14.0437 22.0786 13.7293 21.7991C13.4148 21.4847 13.2052 21.0306 13.1004 20.4367C12.9607 19.8079 12.8908 18.917 12.8908 17.7642C12.8908 16.6114 12.9607 15.738 13.1004 15.1441C13.2052 14.5502 13.4148 14.0961 13.7293 13.7817C14.0437 13.4672 14.4978 13.2576 15.0917 13.1528C15.8603 12.9782 16.7511 12.8908 17.7642 12.8908C18.7424 12.8908 19.6157 12.9782 20.3843 13.1528C20.9782 13.2576 21.4323 13.4672 21.7467 13.7817C22.0262 14.0961 22.2358 14.5502 22.3755 15.1441C22.5153 15.9127 22.5851 16.786 22.5851 17.7642C22.5851 18.7773 22.5153 19.6681 22.3755 20.4367ZM15.7729 18.2358C15.6332 18.0611 15.4585 17.9738 15.2489 17.9738C15.0742 17.9738 14.917 18.0611 14.7773 18.2358C14.6376 18.3406 14.5677 18.4978 14.5677 18.7074V20.2271C14.5677 20.4367 14.6376 20.6113 14.7773 20.7511C14.917 20.8908 15.0742 20.9607 15.2489 20.9607C15.4585 20.9607 15.6332 20.8908 15.7729 20.7511C15.9127 20.6113 15.9825 20.4367 15.9825 20.2271V18.7074C15.9825 18.4978 15.9127 18.3406 15.7729 18.2358ZM17.7642 15.8777C17.31 15.8777 17.083 16.1048 17.083 16.5589V20.2271C17.083 20.7162 17.31 20.9607 17.7642 20.9607C17.9389 20.9607 18.1135 20.8908 18.2882 20.7511C18.393 20.6113 18.4454 20.4367 18.4454 20.2271V16.5589C18.4454 16.3843 18.393 16.2271 18.2882 16.0873C18.1135 15.9476 17.9389 15.8777 17.7642 15.8777ZM19.7555 14.8297C19.5808 14.9694 19.4934 15.1266 19.4934 15.3013V20.2271C19.4934 20.4367 19.5808 20.6113 19.7555 20.7511C19.8603 20.8908 20.0175 20.9607 20.2271 20.9607C20.4017 20.9607 20.5589 20.8908 20.6987 20.7511C20.8384 20.6113 20.9083 20.4367 20.9083 20.2271V15.3013C20.9083 15.1266 20.8384 14.9694 20.6987 14.8297C20.5589 14.69 20.4017 14.6201 20.2271 14.6201C20.0175 14.6201 19.8603 14.69 19.7555 14.8297Z"></path></svg>