<svg xmlns="http://www.w3.org/2000/svg" width="24" height="24" viewBox="0 0 24 24" fill="none">
<path d="M23.5 6.35C23.1333 4.68333 22.4833 3.38333 21.55 2.45C20.6167 1.51667 19.3167 0.866667 17.65 0.5C16.1833 0.166667 14.3 0 12 0C9.66667 0 7.76667 0.166667 6.3 0.5C4.63333 0.866667 3.33333 1.51667 2.4 2.45C1.46667 3.38333 0.816667 4.68333 0.45 6.35C0.15 7.68333 0 9.56667 0 12C0 14.4667 0.15 16.3667 0.45 17.7C0.816667 19.3667 1.46667 20.6667 2.4 21.6C3.33333 22.5333 4.63333 23.1833 6.3 23.55C7.63333 23.85 9.53333 24 12 24C14.4333 24 16.3167 23.85 17.65 23.55C19.3167 23.1833 20.6167 22.5333 21.55 21.6C22.4833 20.6667 23.1333 19.3667 23.5 17.7C23.8333 16.2333 24 14.3333 24 12C24 9.7 23.8333 7.81667 23.5 6.35ZM12 4.85C13.3333 4.85 14.45 5.31667 15.35 6.25C16.2833 7.18333 16.75 8.31667 16.75 9.65C16.75 10.9833 16.2833 12.1 15.35 13C14.45 13.9333 13.3333 14.4 12 14.4C10.6667 14.4 9.53333 13.9333 8.6 13C7.66667 12.1 7.2 10.9833 7.2 9.65C7.2 8.31667 7.66667 7.18333 8.6 6.25C9.53333 5.31667 10.6667 4.85 12 4.85ZM4.25 18.55C4.78333 17.65 5.51667 16.9667 6.45 16.5C7.68333 15.9333 9.51667 15.65 11.95 15.65C14.4833 15.65 16.3167 15.9167 17.45 16.45C18.4833 16.95 19.25 17.65 19.75 18.55C20.1167 19.2833 20 19.8667 19.4 20.3C18.7667 20.7333 18.0167 21.0333 17.15 21.2C15.85 21.5 14.1167 21.65 11.95 21.65C9.81667 21.65 8.1 21.5 6.8 21.2C5.96667 21.0333 5.23333 20.7333 4.6 20.3C4.3 20.1333 4.11667 19.8667 4.05 19.5C4.01667 19.1667 4.08333 18.85 4.25 18.55Z" fill="#FEFEFE"/>
</svg>