<svg width="24" height="24" viewBox="0 0 24 24" xmlns="http://www.w3.org/2000/svg"><g clip-path="url(#clip0_17286_9694)"><path d="M23.5 8.05H0.5V19.05C0.5 20.3833 0.966668 21.55 1.9 22.55C2.83333 23.5167 3.95 24 5.25 24H18.7C20.0333 24 21.15 23.5167 22.05 22.55C22.95 21.5833 23.4333 20.4167 23.5 19.05V8.05ZM17.4 10.3L19.2 12.1C19.4 12.3 19.5 12.5167 19.5 12.75C19.5 13.05 19.4 13.2667 19.2 13.4L17.4 15.25C17.1667 15.4167 16.95 15.5 16.75 15.5C16.4833 15.5 16.2667 15.4167 16.1 15.25C15.9667 15.1167 15.8667 14.9 15.8 14.6C15.8 14.3333 15.9 14.1167 16.1 13.95L16.35 13.7H9.4C9.13333 13.7 8.91667 13.6 8.75 13.4C8.58333 13.2667 8.5 13.05 8.5 12.75C8.5 12.4833 8.58333 12.2667 8.75 12.1C8.91667 11.9333 9.13333 11.85 9.4 11.85H16.35L16.1 11.6C15.9 11.4 15.8 11.1833 15.8 10.95C15.8667 10.6167 15.9667 10.4 16.1 10.3C16.2 10.1667 16.4167 10.0667 16.75 10C16.9833 10 17.2 10.1 17.4 10.3ZM12.15 16.45C12.15 16.65 12.0667 16.8667 11.9 17.1L11.6 17.35H18.55C18.8167 17.35 19.0333 17.4333 19.2 17.6C19.4 17.8 19.5 18.0167 19.5 18.25C19.5 18.55 19.4 18.7667 19.2 18.9C19.0667 19.1 18.85 19.2 18.55 19.2H11.6L11.9 19.45L12.1 19.75L12.15 20.1L12.1 20.45L11.9 20.75L11.6 20.95L11.25 21.05L10.9 20.95C10.7333 20.8833 10.6333 20.8167 10.6 20.75L8.75 18.9C8.58333 18.7667 8.5 18.55 8.5 18.25C8.5 17.9833 8.58333 17.7667 8.75 17.6L10.6 15.8C10.7333 15.6333 10.9333 15.55 11.2 15.55C11.4667 15.55 11.6833 15.6333 11.85 15.8C12.05 15.9667 12.15 16.1833 12.15 16.45ZM5.5 11C5.76667 11 6 11.1 6.2 11.3C6.4 11.5 6.5 11.7333 6.5 12V14C6.5 14.6667 6.16667 15 5.5 15H3.5C2.83333 15 2.5 14.6667 2.5 14V12C2.5 11.3333 2.83333 11 3.5 11H5.5ZM3.5 20C2.83333 20 2.5 19.6667 2.5 19V17C2.5 16.3333 2.83333 16 3.5 16H5.5C5.76667 16 6 16.1 6.2 16.3C6.4 16.5 6.5 16.7333 6.5 17V19C6.5 19.6667 6.16667 20 5.5 20H3.5ZM17.5 9.02983e-08C17.2224 -0.00247387 16.9891 0.0808595 16.8 0.25V0.300003C16.7781 0.325524 16.7615 0.342186 16.75 0.349999L16.7 0.449997C16.5702 0.623174 16.5035 0.806511 16.5 1V4C16.4975 4.27747 16.5809 4.49414 16.75 4.65L16.8 4.7C16.9872 4.90664 17.2206 5.00664 17.5 5C17.766 4.99831 17.9993 4.8983 18.2 4.7V4.65C18.4066 4.49597 18.5066 4.2793 18.5 4V1C18.4983 0.733985 18.3983 0.500654 18.2 0.300003C17.9993 0.101696 17.766 0.0016928 17.5 9.02983e-08ZM1.9 3.5C0.966668 4.5 0.5 5.66667 0.5 7H23.5C23.4333 5.63333 22.95 4.46667 22.05 3.5C21.3363 2.76003 20.4863 2.29336 19.5 2.1V4C19.4934 4.57461 19.2934 5.04128 18.9 5.4H18.85C18.4728 5.80169 18.0228 6.00169 17.5 6C16.9383 5.99349 16.4716 5.79349 16.1 5.4C16.0991 5.40117 16.0824 5.3845 16.05 5.35C15.6855 5.01367 15.5022 4.56367 15.5 4V2H8.5V4C8.49336 4.57461 8.29336 5.04128 7.9 5.4H7.85C7.47278 5.80169 7.02279 6.00169 6.5 6C5.93815 5.99349 5.47148 5.79349 5.1 5.4C5.09909 5.40117 5.08242 5.3845 5.05 5.35C4.68555 5.01367 4.50221 4.56367 4.5 4V2.1C3.49245 2.2806 2.62578 2.74727 1.9 3.5ZM6.5 9.02983e-08C6.2224 -0.00247387 5.98906 0.0808595 5.8 0.25V0.300003C5.60169 0.500654 5.50169 0.733985 5.5 1V4C5.49753 4.27747 5.58086 4.49414 5.75 4.65L5.8 4.7C5.98724 4.90664 6.22057 5.00664 6.5 5C6.76602 4.99831 6.99935 4.8983 7.2 4.7V4.65C7.40664 4.49597 7.50664 4.2793 7.5 4V1C7.50273 0.822136 7.45273 0.655469 7.35 0.5C7.32057 0.441797 7.27057 0.375133 7.2 0.300003C6.99935 0.101696 6.76602 0.0016928 6.5 9.02983e-08Z"></path></g><defs><clipPath id="clip0_17286_9694"><rect width="24" height="24"></rect></clipPath></defs></svg>