<svg xmlns="http://www.w3.org/2000/svg" width="24" height="24" viewBox="0 0 24 24" fill="none">
<g clip-path="url(#clip0_1332_34429)">
<path d="M2.57143 14.1429H0.428571C0.191878 14.1429 0 14.3348 0 14.5715V23.5715C0 23.8082 0.191878 24 0.428571 24H2.57143C2.80812 24 3 23.8082 3 23.5715V14.5715C3 14.3348 2.80812 14.1429 2.57143 14.1429Z" fill="#FEFEFE"/>
<path d="M23.8258 17.1857C23.6292 16.9496 23.3071 16.8597 23.0166 16.9599L15.0855 19.6046C14.9398 19.6509 14.7895 19.6815 14.6372 19.6959C14.6204 19.7002 14.6034 19.7035 14.5862 19.7057C14.5794 19.7057 14.5725 19.7019 14.5652 19.7014C14.5125 19.7053 14.4606 19.7143 14.4075 19.7143H10.5962C9.91916 19.7136 9.25716 19.9141 8.69422 20.2903L8.38051 20.4994C8.18358 20.6308 7.91744 20.5776 7.78608 20.3807C7.65471 20.1838 7.70786 19.9177 7.90479 19.7863L8.21893 19.5771C8.92254 19.1069 9.74996 18.8563 10.5962 18.8571H13.1998C13.4724 18.493 13.4976 18.0001 13.2636 17.61L13.2251 17.5461C12.9142 17.0315 12.3576 16.7162 11.7564 16.7143H9.51408C9.41379 16.7143 9.31393 16.7083 9.21408 16.7014C8.33436 16.6398 7.49406 16.3127 6.80422 15.7633C6.18621 15.2699 5.41913 15.0009 4.62836 15H3.85693V23.5714H14.2712C14.7429 23.5714 15.2055 23.4417 15.6084 23.1964L23.6419 18.3064C23.8216 18.1971 23.9466 18.0169 23.9863 17.8104C24.026 17.6039 23.9765 17.3903 23.8502 17.2221C23.8416 17.2101 23.8331 17.1981 23.8258 17.1857Z" fill="#FEFEFE"/>
<path d="M14.3999 18.8572L23.3956 9.85715L20.2701 6.73158C19.9489 6.42802 19.4432 6.43948 19.1361 6.75729L19.0958 6.79757C19.067 6.83725 19.0562 6.88711 19.0658 6.93515C19.2105 8.09506 18.6584 9.23136 17.6571 9.83443C16.7453 10.3955 15.5974 10.4043 14.6772 9.85715C13.9339 9.4074 13.4393 8.64034 13.3362 7.77772C13.2315 6.87424 13.5492 5.97292 14.1973 5.33483C14.8454 4.69673 15.7516 4.39315 16.6533 4.512C16.6934 4.51835 16.7343 4.50797 16.7665 4.48329L16.8149 4.43572C17.133 4.12772 17.1435 3.62094 16.8385 3.3L13.7142 0.177429L10.4815 3.40629C10.1714 3.71935 9.75119 3.8987 9.31063 3.906H9.28449C8.85344 3.90795 8.43959 3.73707 8.13549 3.43157L8.1042 3.40372C7.88309 3.17908 7.78274 2.86226 7.8342 2.55129C7.94636 1.94338 7.76178 1.31844 7.33734 0.869016C6.9129 0.419593 6.29952 0.199614 5.6862 0.276858C5.03563 0.35542 4.45663 0.727001 4.1142 1.28572C3.71451 1.91693 3.69703 2.71751 4.06877 3.36557C4.48171 4.06446 5.28261 4.43663 6.08306 4.30157C6.39444 4.24418 6.71426 4.34204 6.9402 4.56386L6.97406 4.59772C7.28441 4.90783 7.45469 5.33122 7.44549 5.76986C7.44016 6.21062 7.26229 6.63173 6.95006 6.94286L3.71777 10.17L9.39934 15.852C9.43792 15.852 9.47606 15.8571 9.51463 15.8571H11.7565C12.659 15.8599 13.4947 16.3331 13.9615 17.1056L14.0001 17.1694C14.3047 17.6793 14.3633 18.2993 14.1595 18.8572H14.3999Z" fill="#FEFEFE"/>
</g>
<defs>
<clipPath id="clip0_1332_34429">
<rect width="24" height="24" fill="white"/>
</clipPath>
</defs>
</svg>