<svg width="24" height="24" viewBox="0 0 24 24" xmlns="http://www.w3.org/2000/svg"><path d="M13.7 0.850002C12.5667 0.616669 11.1 0.5 9.3 0.5C7.5 0.5 6.03333 0.616669 4.9 0.850002C3.63333 1.18334 2.63333 1.68334 1.9 2.35C1.23333 3.08334 0.733335 4.08334 0.400002 5.35C0.166668 6.48334 0.0500031 7.95 0.0500031 9.75C0.0500031 11.55 0.166668 13.0167 0.400002 14.15C0.733335 15.4167 1.23333 16.4167 1.9 17.15C2.7 17.9167 3.7 18.4167 4.9 18.65C6.03333 18.8833 7.5 19 9.3 19C9.6043 19 9.88763 19 10.15 19C10.0833 18.5 10.05 17.9833 10.05 17.45C10.05 16.7121 10.1333 16.0121 10.3 15.35C9.59102 15.4167 8.69102 15.45 7.60001 15.45C5.93334 15.45 4.7 15.3667 3.9 15.2C3.4 15.1 2.96667 14.9333 2.60001 14.7C2.30001 14.5333 2.11667 14.2833 2.05 13.95C1.98334 13.6167 2.05 13.3167 2.25 13.05C2.58333 12.5167 3.05 12.1 3.65 11.8C4.55 11.4 5.86667 11.2 7.60001 11.2C9.43334 11.2 10.75 11.4 11.55 11.8C11.7431 11.9017 11.9264 12.0017 12.1 12.1C12.1921 12.0079 12.2921 11.9079 12.4 11.8C13.9333 10.2333 15.8167 9.45 18.05 9.45C18.2181 9.45 18.3848 9.45 18.55 9.45C18.5375 7.78932 18.4208 6.42266 18.2 5.35C17.9667 4.15 17.4667 3.15 16.7 2.35C15.9667 1.68334 14.9667 1.18334 13.7 0.850002ZM14.05 5.45C14.6167 5.45 15.0833 5.65 15.45 6.05C15.85 6.45 16.05 6.93333 16.05 7.5C16.05 8.06667 15.85 8.53333 15.45 8.9C15.0833 9.3 14.6167 9.5 14.05 9.5C13.4833 9.5 13 9.3 12.6 8.9C12.2333 8.53333 12.05 8.06667 12.05 7.5C12.05 6.93333 12.2333 6.45 12.6 6.05C13 5.65 13.4833 5.45 14.05 5.45ZM10.05 4.45C10.7167 5.15 11.05 5.96667 11.05 6.9C11.05 7.86667 10.7167 8.68334 10.05 9.35C9.38334 10.0167 8.56667 10.35 7.60001 10.35C6.66667 10.35 5.85 10.0167 5.15 9.35C4.48333 8.68334 4.15 7.86667 4.15 6.9C4.15 5.96667 4.48333 5.15 5.15 4.45C5.85 3.78333 6.66667 3.45 7.60001 3.45C8.56667 3.45 9.38334 3.78333 10.05 4.45Z"></path><path d="M23.8 15.6C24 15.2 24 14.8167 23.8 14.45C23.5667 14.1167 23.2333 13.8833 22.8 13.75C22.3333 13.65 21.9 13.7 21.5 13.9L21.3 14.05C20.7333 13.65 20.2 13.3833 19.7 13.25V12.95C19.7 12.55 19.5333 12.2 19.2 11.9C18.8667 11.6 18.4667 11.45 18 11.45C17.5667 11.45 17.1833 11.6 16.85 11.9C16.5167 12.2 16.35 12.55 16.35 12.95V13.25C15.8167 13.3833 15.3 13.65 14.8 14.05L14.55 13.9C14.15 13.7 13.7167 13.65 13.25 13.75C12.8167 13.8833 12.4833 14.1167 12.25 14.45C12.05 14.8167 12.05 15.2 12.25 15.6C12.4167 16 12.7167 16.3 13.15 16.5L13.4 16.65C13.3 17.2167 13.3 17.7667 13.4 18.3L13.15 18.45C12.7167 18.65 12.4167 18.95 12.25 19.35C12.05 19.75 12.05 20.1167 12.25 20.45C12.4833 20.8167 12.8167 21.0667 13.25 21.2C13.7167 21.3 14.15 21.25 14.55 21.05V21L14.8 20.9C15.3 21.3 15.8167 21.5667 16.35 21.7V21.95C16.35 22.3833 16.5167 22.7333 16.85 23C17.15 23.3 17.5333 23.45 18 23.45C18.4667 23.45 18.8667 23.3 19.2 23C19.5333 22.7333 19.7 22.3833 19.7 21.95V21.7C20.2333 21.5667 20.75 21.3 21.25 20.9L21.5 21C21.9 21.2333 22.3333 21.3 22.8 21.2C23.2333 21.0667 23.5667 20.8167 23.8 20.45C24 20.1167 24 19.75 23.8 19.35C23.6333 18.95 23.3333 18.65 22.9 18.45L22.65 18.3C22.75 17.7667 22.75 17.2167 22.65 16.65L22.9 16.5C23.3333 16.3 23.6333 16 23.8 15.6ZM20 17.45C20 18.05 19.8167 18.5333 19.45 18.9C19.0833 19.2667 18.6 19.45 18 19.45C17.4 19.45 16.9167 19.2667 16.55 18.9C16.1833 18.5 16 18.0167 16 17.45C16 16.8833 16.1833 16.4167 16.55 16.05C16.9167 15.65 17.4 15.45 18 15.45C18.6 15.45 19.0833 15.65 19.45 16.05C19.8167 16.4167 20 16.8833 20 17.45Z"></path></svg>