<svg width="24" height="24" viewBox="0 0 24 24" xmlns="http://www.w3.org/2000/svg"><g clip-path="url(#clip0_17286_9705)"><path d="M24.008 17.1993C24.008 15.953 23.9069 14.8919 23.7048 14.0161C23.469 13.0056 23.0985 12.2646 22.5933 11.793C22.1217 11.2878 21.3806 10.9172 20.3701 10.6814C19.528 10.4793 18.467 10.3783 17.187 10.3783C15.907 10.3783 14.8292 10.4793 13.9534 10.6814C12.9429 10.9172 12.2018 11.2878 11.7302 11.793C11.225 12.2646 10.8545 13.0056 10.6187 14.0161C10.4503 14.7235 10.366 15.7845 10.366 17.1993C10.366 18.6477 10.4503 19.7255 10.6187 20.4329C10.8545 21.4434 11.225 22.1845 11.7302 22.656C12.2018 23.1613 12.9429 23.5318 13.9534 23.7676C14.6607 23.936 15.7386 24.0202 17.187 24.0202C18.6017 24.0202 19.6628 23.936 20.3701 23.7676C21.3806 23.5318 22.1217 23.1613 22.5933 22.656C23.0985 22.1845 23.469 21.4434 23.7048 20.4329C23.9069 19.5908 24.008 18.5129 24.008 17.1993ZM22.2396 14.3193C22.408 15.1614 22.4922 16.1214 22.4922 17.1993C22.4922 18.3108 22.408 19.2877 22.2396 20.1297C22.1048 20.7697 21.8691 21.2582 21.5322 21.595C21.1954 21.9318 20.707 22.1676 20.067 22.3023C19.3933 22.4371 18.4333 22.5045 17.187 22.5045C15.907 22.5045 14.9302 22.4371 14.2565 22.3023C13.6165 22.1676 13.1281 21.9318 12.7913 21.595C12.4544 21.2582 12.2187 20.7697 12.0839 20.1297C11.9492 19.4561 11.8818 18.4792 11.8818 17.1993C11.8818 15.953 11.9492 14.993 12.0839 14.3193C12.2187 13.6793 12.4544 13.1909 12.7913 12.8541C13.1281 12.5172 13.6165 12.2814 14.2565 12.1467C15.0986 11.9783 16.0754 11.8941 17.187 11.8941C18.2649 11.8941 19.2249 11.9783 20.067 12.1467C20.707 12.2814 21.1954 12.5172 21.5322 12.8541C21.8691 13.1909 22.1048 13.6793 22.2396 14.3193ZM13.9534 17.7045C13.785 17.8392 13.7007 18.0077 13.7007 18.2098V19.9276C13.7007 20.1297 13.785 20.315 13.9534 20.4834C14.0881 20.6182 14.2565 20.6855 14.4586 20.6855C14.6607 20.6855 14.846 20.6182 15.0144 20.4834C15.1491 20.315 15.2165 20.1297 15.2165 19.9276V18.2098C15.2165 18.0077 15.1491 17.8392 15.0144 17.7045C14.846 17.5361 14.6607 17.4519 14.4586 17.4519C14.2565 17.4519 14.0881 17.5361 13.9534 17.7045ZM17.7428 15.3803C17.5744 15.2119 17.3891 15.1277 17.187 15.1277C16.6818 15.1277 16.4291 15.3803 16.4291 15.8856V19.9276C16.4291 20.4329 16.6818 20.6855 17.187 20.6855C17.3891 20.6855 17.5744 20.6182 17.7428 20.4834C17.8775 20.315 17.9449 20.1297 17.9449 19.9276V15.8856C17.9449 15.6835 17.8775 15.5151 17.7428 15.3803ZM20.6228 19.9276V14.5214C20.6228 14.3193 20.5554 14.1509 20.4207 14.0161C20.2522 13.8477 20.067 13.7635 19.8649 13.7635C19.6628 13.7635 19.4943 13.8477 19.3596 14.0161C19.1912 14.1509 19.107 14.3193 19.107 14.5214V19.9276C19.107 20.1297 19.1912 20.315 19.3596 20.4834C19.4943 20.6182 19.6628 20.6855 19.8649 20.6855C20.067 20.6855 20.2522 20.6182 20.4207 20.4834C20.5554 20.315 20.6228 20.1297 20.6228 19.9276ZM9.60816 0.0205307C7.6545 0.0205307 6.12189 0.155267 5.01032 0.424738C3.76402 0.694208 2.73667 1.21631 1.92825 1.99103C1.15353 2.79944 0.631442 3.8268 0.361971 5.0731C0.126185 6.04993 0.00828552 7.5657 0.00828552 9.62041C0.00828552 11.7088 0.126185 13.2414 0.361971 14.2182C0.631442 15.4982 1.15353 16.5256 1.92825 17.3003C2.73667 18.1087 3.76402 18.6308 5.01032 18.8666C5.91979 19.1024 7.31767 19.2203 9.20396 19.2203C9.1366 18.614 9.10291 17.9403 9.10291 17.1993C9.10291 15.5824 9.23763 14.2351 9.5071 13.1572H7.28398L7.58714 13.4098L7.73871 13.713L7.83976 14.0667L7.78923 14.3698L7.58714 14.673L7.28398 14.8751L6.93031 14.9256L6.62715 14.8751L6.32399 14.673L4.5556 12.9046C4.38718 12.7362 4.30297 12.5341 4.30297 12.2983C4.30297 12.0962 4.38718 11.8772 4.5556 11.6414L6.32399 9.92356C6.45873 9.75514 6.66084 9.67093 6.93031 9.67093C7.16609 9.67093 7.36819 9.75514 7.53661 9.92356C7.70503 10.0583 7.78923 10.2604 7.78923 10.5299C7.78923 10.7993 7.72187 11.0014 7.58714 11.1362L7.28398 11.3888H10.1639C10.2987 11.1193 10.4671 10.8835 10.6692 10.6814C11.6797 9.63725 13.8523 9.11515 17.187 9.11515C17.9281 9.11515 18.6017 9.14883 19.208 9.2162C19.1744 7.49833 19.0396 6.11729 18.8038 5.0731C18.5681 3.8268 18.046 2.79944 17.2375 1.99103C16.4628 1.21631 15.4355 0.694208 14.1555 0.424738C13.0439 0.155267 11.5281 0.0205307 9.60816 0.0205307ZM4.5556 6.38676C4.72401 6.21834 4.92612 6.13414 5.16191 6.13414H11.8818L11.5787 5.88151C11.4439 5.71309 11.3766 5.49415 11.3766 5.22468C11.3766 4.98889 11.4608 4.78678 11.6292 4.61837C11.7976 4.44995 11.9997 4.36574 12.2355 4.36574C12.4713 4.36574 12.6734 4.44995 12.8418 4.61837L14.6102 6.38676C14.7786 6.55518 14.8628 6.75729 14.8628 6.99307C14.8628 7.19518 14.7786 7.41412 14.6102 7.64991L12.8418 9.36778C12.7071 9.5362 12.505 9.62041 12.2355 9.62041C11.9997 9.62041 11.7976 9.5362 11.6292 9.36778C11.4608 9.23304 11.3766 9.03094 11.3766 8.76147C11.3766 8.492 11.4439 8.2899 11.5787 8.15516L11.8818 7.90253H5.16191C4.92612 7.90253 4.72401 7.81832 4.5556 7.64991C4.38718 7.41412 4.30297 7.19518 4.30297 6.99307C4.30297 6.75729 4.38718 6.55518 4.5556 6.38676Z"></path></g><defs><clipPath id="clip0_17286_9705"><rect width="24" height="24"></rect></clipPath></defs></svg>