<svg width="24" height="24" viewBox="0 0 24 24" xmlns="http://www.w3.org/2000/svg"><path d="M4.29999 3.6C3.16666 3.6 2.18333 4.01666 1.34999 4.85C0.549994 5.61666 0.149994 6.58333 0.149994 7.75V16.1C0.149994 17.2667 0.549994 18.25 1.34999 19.05C2.14999 19.85 3.13333 20.25 4.29999 20.25H9.29999C9.19999 19.3836 9.14999 18.3836 9.14999 17.25C9.14999 15.298 9.33333 13.748 9.69999 12.6C9.61419 12.7582 9.51419 12.9249 9.39999 13.1C8.93333 13.7333 8.41666 14.2833 7.84999 14.75C7.51666 15.0167 7.16666 15.15 6.79999 15.15C6.39999 15.15 6.03333 15.0167 5.69999 14.75C5.16666 14.2833 4.66666 13.7333 4.19999 13.1C3.69999 12.3333 3.44999 11.6667 3.44999 11.1C3.44999 10.6667 3.61666 10.2833 3.94999 9.95C4.24999 9.61666 4.64999 9.45 5.14999 9.45C5.61666 9.45 5.99999 9.61666 6.29999 9.95C6.62812 10.2781 6.79479 10.6448 6.79999 11.05C6.80481 10.6122 6.97148 10.2456 7.29999 9.95C7.59999 9.61666 7.98333 9.45 8.44999 9.45C8.91666 9.45 9.31666 9.61666 9.64999 9.95C9.98333 10.2833 10.15 10.6667 10.15 11.1C10.15 11.2861 10.1167 11.4861 10.05 11.7C10.246 11.3374 10.4626 11.0374 10.7 10.8C11.2582 10.2232 12.1749 9.80651 13.45 9.55V7.75C13.45 6.61667 13.05 5.65 12.25 4.85C11.4167 4.01666 10.4333 3.6 9.29999 3.6H4.29999ZM7.89999 1.95H9.29999C10.9 1.95 12.2667 2.51667 13.4 3.65C14.5 4.75 15.0833 6.11667 15.15 7.75V9.3C15.7616 9.26667 16.4282 9.25 17.15 9.25C17.8921 9.25 18.5754 9.26667 19.2 9.3L19.95 7.05C20.2833 5.95 20.1667 4.91666 19.6 3.95C19.1 2.95 18.3 2.26667 17.2 1.9L12.45 0.45C11.5833 0.183334 10.75 0.199999 9.94999 0.499999C9.08333 0.766666 8.39999 1.25 7.89999 1.95Z"></path><path d="M22.5 22.65C23 22.1833 23.3667 21.45 23.6 20.45C23.8 19.6167 23.9 18.55 23.9 17.25C23.9 16.0167 23.8 14.9667 23.6 14.1C23.3667 13.1 23 12.3667 22.5 11.9C22.0333 11.4 21.3 11.0333 20.3 10.8C19.4667 10.6 18.4167 10.5 17.15 10.5C15.8833 10.5 14.8167 10.6 13.95 10.8C12.95 11.0333 12.2167 11.4 11.75 11.9C11.25 12.3667 10.8833 13.1 10.65 14.1C10.4833 14.8 10.4 15.85 10.4 17.25C10.4 18.6833 10.4833 19.75 10.65 20.45C10.8833 21.45 11.25 22.1833 11.75 22.65C12.2167 23.15 12.95 23.5167 13.95 23.75C14.65 23.9167 15.7167 24 17.15 24C18.55 24 19.6 23.9167 20.3 23.75C21.3 23.5167 22.0333 23.15 22.5 22.65ZM21.45 12.95C21.7833 13.2833 22.0167 13.7667 22.15 14.4C22.3167 15.2333 22.4 16.1833 22.4 17.25C22.4 18.35 22.3167 19.3167 22.15 20.15C22.0167 20.7833 21.7833 21.2667 21.45 21.6C21.1167 21.9333 20.6333 22.1667 20 22.3C19.3333 22.4333 18.3833 22.5 17.15 22.5C15.8833 22.5 14.9167 22.4333 14.25 22.3C13.6167 22.1667 13.1333 21.9333 12.8 21.6C12.4667 21.2667 12.2333 20.7833 12.1 20.15C11.9667 19.4833 11.9 18.5167 11.9 17.25C11.9 16.0167 11.9667 15.0667 12.1 14.4C12.2333 13.7667 12.4667 13.2833 12.8 12.95C13.1333 12.6167 13.6167 12.3833 14.25 12.25C15.0833 12.0833 16.05 12 17.15 12C18.2167 12 19.1667 12.0833 20 12.25C20.6333 12.3833 21.1167 12.6167 21.45 12.95ZM13.95 17.75C13.7833 17.8833 13.7 18.05 13.7 18.25V19.95C13.7 20.15 13.7833 20.3333 13.95 20.5C14.0833 20.6333 14.25 20.7 14.45 20.7C14.65 20.7 14.8333 20.6333 15 20.5C15.1333 20.3333 15.2 20.15 15.2 19.95V18.25C15.2 18.05 15.1333 17.8833 15 17.75C14.8333 17.5833 14.65 17.5 14.45 17.5C14.25 17.5 14.0833 17.5833 13.95 17.75ZM17.15 15.2C16.65 15.2 16.4 15.45 16.4 15.95V19.95C16.4 20.45 16.65 20.7 17.15 20.7C17.35 20.7 17.5333 20.6333 17.7 20.5C17.8333 20.3333 17.9 20.15 17.9 19.95V15.95C17.9 15.75 17.8333 15.5833 17.7 15.45C17.5333 15.2833 17.35 15.2 17.15 15.2ZM20.55 19.95V14.6C20.55 14.4 20.4833 14.2333 20.35 14.1C20.1833 13.9333 20 13.85 19.8 13.85C19.6 13.85 19.4333 13.9333 19.3 14.1C19.1333 14.2333 19.05 14.4 19.05 14.6V19.95C19.05 20.15 19.1333 20.3333 19.3 20.5C19.4333 20.6333 19.6 20.7 19.8 20.7C20 20.7 20.1833 20.6333 20.35 20.5C20.4833 20.3333 20.55 20.15 20.55 19.95Z"></path></svg>