<svg xmlns="http://www.w3.org/2000/svg" width="24" height="24" viewBox="0 0 24 24" fill="none">
<g clip-path="url(#clip0_1332_34420)">
<path d="M12.431 11.7262L11.9771 10.5865L11.5233 11.7262C11.423 11.9782 11.1868 12.1499 10.9156 12.1677L9.69141 12.2467L10.6348 13.0308C10.8435 13.2045 10.9342 13.4826 10.8669 13.7456L10.5641 14.934L11.6015 14.2784C11.8309 14.1342 12.1234 14.1342 12.3527 14.2784L13.3894 14.9334L13.0866 13.7456C13.0193 13.4826 13.11 13.2045 13.3187 13.0308L14.2621 12.2467L13.0385 12.1677C12.7674 12.1499 12.5312 11.9782 12.431 11.7262Z" fill="#FEFEFE"/>
<path d="M23.3423 8.60766L15.5284 8.10163L12.6303 0.820903C12.4174 0.28675 11.5372 0.28675 11.3244 0.820903L8.42622 8.10163L0.657732 8.60766C0.370031 8.62622 0.123577 8.81845 0.0342862 9.09241C-0.0543021 9.36568 0.0322238 9.66641 0.254023 9.85043L6.23115 14.8565L4.29627 22.4495C4.22488 22.7283 4.33128 23.0228 4.56405 23.1918C4.79747 23.3607 5.10992 23.3703 5.35296 23.2179L11.9773 19.031L18.6009 23.2179C18.8451 23.3713 19.1564 23.3613 19.3898 23.1918C19.6226 23.0228 19.729 22.729 19.6576 22.4495L17.7228 14.8564L23.746 9.85038C23.9678 9.66636 24.0543 9.36563 23.9658 9.09237C23.8765 8.81845 23.63 8.62618 23.3423 8.60766ZM16.5192 12.2006L14.559 13.8286L15.1879 16.2976C15.2593 16.577 15.1529 16.8709 14.9201 17.0398C14.6867 17.2092 14.3755 17.2194 14.1312 17.0659L11.9773 15.7044L9.82277 17.0659C9.57833 17.2183 9.26729 17.2094 9.03387 17.0398C8.8011 16.8709 8.6947 16.5763 8.76609 16.2976L9.39502 13.8286L7.43478 12.2006C7.21303 12.0166 7.1265 11.7159 7.21504 11.4426C7.30429 11.1687 7.55079 10.9764 7.83849 10.9579L10.3817 10.7931L11.3244 8.42566C11.5372 7.89151 12.4174 7.89151 12.6303 8.42566L13.573 10.7931L16.1154 10.9579C16.4031 10.9764 16.6496 11.1687 16.7389 11.4426C16.8275 11.7159 16.741 12.0166 16.5192 12.2006Z" fill="#FEFEFE"/>
<path d="M11.9995 23.5798C12.3878 23.5798 12.7026 23.265 12.7026 22.8767C12.7026 22.4884 12.3878 22.1736 11.9995 22.1736C11.6112 22.1736 11.2964 22.4884 11.2964 22.8767C11.2964 23.265 11.6112 23.5798 11.9995 23.5798Z" fill="#FEFEFE"/>
<path d="M22.0297 16.2911C22.1497 15.9218 21.9476 15.5251 21.5783 15.4051C21.209 15.2851 20.8123 15.4873 20.6923 15.8566C20.5724 16.2259 20.7745 16.6225 21.1438 16.7425C21.5131 16.8625 21.9097 16.6604 22.0297 16.2911Z" fill="#FEFEFE"/>
<path d="M18.3541 5.48407C18.5823 5.16993 18.5127 4.73025 18.1985 4.502C17.8844 4.27376 17.4447 4.34339 17.2165 4.65753C16.9882 4.97166 17.0579 5.41135 17.372 5.63959C17.6861 5.86783 18.1258 5.7982 18.3541 5.48407Z" fill="#FEFEFE"/>
<path d="M6.62678 5.63875C6.94092 5.4105 7.01055 4.97081 6.78231 4.65668C6.55406 4.34254 6.11438 4.27291 5.80024 4.50116C5.4861 4.7294 5.41647 5.16909 5.64472 5.48322C5.87296 5.79736 6.31265 5.86699 6.62678 5.63875Z" fill="#FEFEFE"/>
<path d="M2.85467 16.7447C3.22398 16.6247 3.4261 16.228 3.30612 15.8587C3.18613 15.4894 2.78948 15.2873 2.42017 15.4073C2.05085 15.5272 1.84873 15.9239 1.96872 16.2932C2.0887 16.6625 2.48536 16.8647 2.85467 16.7447Z" fill="#FEFEFE"/>
</g>
<defs>
<clipPath id="clip0_1332_34420">
<rect width="24" height="24" fill="white"/>
</clipPath>
</defs>
</svg>