<svg width="24" height="24" viewBox="0 0 24 24" xmlns="http://www.w3.org/2000/svg"><path d="M2.39999 2.45C1.46666 3.38333 0.816664 4.68332 0.449997 6.34999C0.149997 7.68332 0 9.56667 0 12C0 14.4667 0.149997 16.3667 0.449997 17.7C0.816664 19.3667 1.46666 20.6667 2.39999 21.6C3.33333 22.5333 4.63334 23.1833 6.3 23.55C7.63334 23.85 9.53333 24 12 24C14.4333 24 16.3167 23.85 17.65 23.55C19.3167 23.1833 20.6167 22.5333 21.55 21.6C22.4833 20.6667 23.1333 19.3667 23.5 17.7C23.8333 16.2333 24 14.3333 24 12C24 9.7 23.8333 7.81666 23.5 6.34999C23.1333 4.68332 22.4833 3.38333 21.55 2.45C20.6167 1.51666 19.3167 0.866667 17.65 0.5C16.1833 0.166667 14.3 0 12 0C9.66667 0 7.76667 0.166667 6.3 0.5C4.63334 0.866667 3.33333 1.51666 2.39999 2.45ZM5.7 7.95C5.9 7.75 6.15 7.64999 6.45 7.64999H14.8L14.5 7.3C14.3 7.1 14.2 6.85 14.2 6.55C14.2 6.21667 14.3 5.95 14.5 5.75C14.7 5.55 14.9667 5.45 15.3 5.45C15.6 5.45 15.85 5.55 16.05 5.75L18.25 7.95C18.45 8.15 18.55 8.41667 18.55 8.75C18.55 9.05 18.45 9.3 18.25 9.5L16.05 11.7C15.85 11.9 15.6 12 15.3 12C14.9667 12 14.7 11.9 14.5 11.7C14.3 11.5 14.2 11.2333 14.2 10.9C14.2 10.6 14.3 10.35 14.5 10.15L14.8 9.84999H6.45C6.18333 9.84999 5.93333 9.73333 5.7 9.5C5.46666 9.26667 5.35001 9.01667 5.35001 8.75C5.35001 8.45 5.46666 8.18333 5.7 7.95ZM5.7 16.1C5.5 15.9 5.39999 15.65 5.39999 15.35C5.39999 15.0167 5.5 14.75 5.7 14.55L7.89999 12.35C8.09999 12.15 8.34999 12.05 8.64999 12.05C8.98333 12.05 9.25 12.15 9.45 12.35C9.65 12.55 9.75 12.8167 9.75 13.15C9.75 13.45 9.65 13.7 9.45 13.9L9.14999 14.25H17.45C17.7833 14.25 18.05 14.35 18.25 14.55C18.45 14.75 18.55 15.0167 18.55 15.35C18.55 15.65 18.45 15.9 18.25 16.1C18.0167 16.3333 17.75 16.45 17.45 16.45H9.14999L9.45 16.75L9.7 17.1L9.8 17.55L9.7 17.95L9.45 18.3C9.31666 18.4333 9.20001 18.5167 9.10001 18.55L8.7 18.65L8.25 18.55L7.89999 18.3L5.7 16.1Z"></path></svg>