<svg xmlns="http://www.w3.org/2000/svg" xmlns:xlink="http://www.w3.org/1999/xlink" version="1.1" width="512" height="512" x="0" y="0" viewBox="0 0 512 512" style="enable-background:new 0 0 512 512" xml:space="preserve" class=""><g><path d="M408.71 237.18c-4.99-5-13.09-5-18.08 0l-39.06 39.05-11.48-11.48c-2.49-2.5-5.77-3.74-9.04-3.74s-6.55 1.24-9.04 3.74c-4.99 5-4.99 13.09 0 18.09l20.52 20.52c4.99 4.99 13.09 4.99 18.08 0l48.1-48.1c2.5-2.49 3.75-5.77 3.75-9.04s-1.25-6.55-3.75-9.04zm0 0c-4.99-5-13.09-5-18.08 0l-39.06 39.05-11.48-11.48c-2.49-2.5-5.77-3.74-9.04-3.74s-6.55 1.24-9.04 3.74c-4.99 5-4.99 13.09 0 18.09l20.52 20.52c4.99 4.99 13.09 4.99 18.08 0l48.1-48.1c2.5-2.49 3.75-5.77 3.75-9.04s-1.25-6.55-3.75-9.04zM362 0H150C67.16 0 0 67.16 0 150v212c0 82.84 67.16 150 150 150h212c82.84 0 150-67.16 150-150V150C512 67.16 444.84 0 362 0zM218.27 103.39c41.15 0 74.51 33.36 74.51 74.52s-33.36 74.51-74.51 74.51-74.52-33.36-74.52-74.51 33.36-74.52 74.52-74.52zm112.99 305.22H105.27c-19.59 0-33.5-19.07-27.53-37.73l23.81-74.29c7.63-23.81 33.74-36.2 57.05-27.16 15.47 6 35.35 10.72 59.66 10.72s44.2-4.72 59.67-10.72c.89-.34 1.79-.66 2.71-.94-.02.59-.03 1.18-.03 1.77 0 42.69 31.72 78.1 72.82 83.92l5.35 16.7c5.98 18.66-7.93 37.73-27.52 37.73zm34.1-68.05c-38.81 0-70.29-31.47-70.29-70.29s31.48-70.3 70.29-70.3 70.3 31.47 70.3 70.3-31.47 70.29-70.3 70.29zm25.27-103.38-39.06 39.05-11.48-11.48c-2.49-2.5-5.77-3.74-9.04-3.74s-6.55 1.24-9.04 3.74c-4.99 5-4.99 13.09 0 18.09l20.52 20.52c4.99 4.99 13.09 4.99 18.08 0l48.1-48.1c2.5-2.49 3.75-5.77 3.75-9.04s-1.25-6.55-3.75-9.04c-4.99-5-13.09-5-18.08 0zm18.08 0c-4.99-5-13.09-5-18.08 0l-39.06 39.05-11.48-11.48c-2.49-2.5-5.77-3.74-9.04-3.74s-6.55 1.24-9.04 3.74c-4.99 5-4.99 13.09 0 18.09l20.52 20.52c4.99 4.99 13.09 4.99 18.08 0l48.1-48.1c2.5-2.49 3.75-5.77 3.75-9.04s-1.25-6.55-3.75-9.04zm0 0c-4.99-5-13.09-5-18.08 0l-39.06 39.05-11.48-11.48c-2.49-2.5-5.77-3.74-9.04-3.74s-6.55 1.24-9.04 3.74c-4.99 5-4.99 13.09 0 18.09l20.52 20.52c4.99 4.99 13.09 4.99 18.08 0l48.1-48.1c2.5-2.49 3.75-5.77 3.75-9.04s-1.25-6.55-3.75-9.04z" fill="#ffffff" data-original="#000000" class=""/></g></svg>