<svg xmlns="http://www.w3.org/2000/svg" width="24" height="24" viewBox="0 0 24 24" fill="none">
<path d="M7.01453 1C7.01453 0.733333 6.91432 0.5 6.7139 0.3C6.6137 0.2 6.51349 0.133333 6.41328 0.1C6.27967 0.0333333 6.14606 0 6.01245 0C5.74523 0 5.52811 0.1 5.3611 0.3H5.311C5.11058 0.5 5.01038 0.733333 5.01038 1V4C5.01038 4.26667 5.11058 4.5 5.311 4.7L5.3611 4.75C5.52811 4.91667 5.74523 5 6.01245 5C6.27967 5 6.51349 4.9 6.7139 4.7H6.76401C6.93102 4.5 7.01453 4.26667 7.01453 4V1ZM18.9392 1C18.9392 0.733333 18.839 0.5 18.6386 0.3C18.4382 0.1 18.2044 0 17.9371 0C17.7701 0 17.6365 0.0333333 17.5363 0.1C17.4361 0.133333 17.3526 0.2 17.2858 0.3H17.2357C17.0353 0.5 16.9351 0.733333 16.9351 1V4C16.9351 4.26667 17.0353 4.5 17.2357 4.7L17.2858 4.75C17.4528 4.91667 17.6699 5 17.9371 5C18.2044 5 18.4382 4.9 18.6386 4.7H18.6887C18.8557 4.5 18.9392 4.26667 18.9392 4V1ZM22.5467 22.55C23.4486 21.5833 23.9329 20.4167 23.9997 19.05V8.05H0.0501038V19.05C0.0501038 20.3833 0.517739 21.55 1.45301 22.55C2.38828 23.5167 3.50726 24 4.80996 24H19.1897C20.5258 24 21.6448 23.5167 22.5467 22.55ZM20.4924 14.2C20.3588 14 20.292 13.8333 20.292 13.7V13.4C20.292 13.1 20.1918 12.85 19.9914 12.65C19.7576 12.4167 19.5071 12.3 19.2398 12.3H18.6887V15L19.9413 15.35C20.5425 15.5167 20.9935 15.85 21.2941 16.35C21.6281 16.85 21.745 17.4167 21.6448 18.05C21.578 18.65 21.3108 19.1333 20.8432 19.5C20.4089 19.9 19.8745 20.1 19.2398 20.1H18.6887V20.35C18.6887 20.55 18.6219 20.7 18.4883 20.8C18.3881 20.9333 18.2378 21 18.0374 21C17.8035 21 17.6365 20.9333 17.5363 20.8C17.4027 20.7 17.3359 20.55 17.3359 20.35V20.1H16.7848C16.1501 20.1 15.5656 19.8667 15.0311 19.4C14.5635 18.9333 14.3297 18.35 14.3297 17.65V17.35C14.3297 17.2167 14.3965 17.05 14.5301 16.85C14.7305 16.7167 14.8975 16.65 15.0311 16.65C15.1647 16.65 15.3318 16.7167 15.5322 16.85C15.6658 17.05 15.7326 17.2167 15.7326 17.35V17.65C15.7326 17.95 15.8328 18.2 16.0332 18.4C16.267 18.6333 16.5175 18.75 16.7848 18.75H17.3359V16.05L16.0833 15.7C15.4821 15.5333 15.0311 15.2 14.7305 14.7C14.3965 14.2 14.2796 13.6333 14.3798 13C14.4466 12.4 14.7138 11.9167 15.1814 11.55C15.6491 11.15 16.1835 10.95 16.7848 10.95H17.3359V10.7C17.3359 10.5 17.4027 10.35 17.5363 10.25C17.6365 10.0833 17.8035 10 18.0374 10C18.2378 10 18.3881 10.0833 18.4883 10.25C18.6219 10.35 18.6887 10.5 18.6887 10.7V10.95H19.2398C19.8745 10.95 20.459 11.1833 20.9935 11.65C21.4611 12.1167 21.6949 12.7 21.6949 13.4V13.7C21.6949 13.8333 21.6281 14 21.4945 14.2C21.2941 14.3333 21.1271 14.4 20.9935 14.4C20.8599 14.4 20.6929 14.3333 20.4924 14.2ZM10.622 11C10.8892 11 11.123 11.1 11.3234 11.3C11.5239 11.5 11.6241 11.7333 11.6241 12V14C11.6241 14.3 11.5239 14.55 11.3234 14.75C11.123 14.9167 10.8892 15 10.622 15H8.61785C8.51764 15 8.41743 15 8.31722 15C8.05 14.9333 7.86629 14.8 7.76608 14.6C7.66588 14.4667 7.61577 14.2667 7.61577 14V12C7.61577 11.7333 7.71598 11.5 7.91639 11.3C8.08341 11.1 8.31722 11 8.61785 11H10.622ZM2.6054 12C2.6054 11.3333 2.93942 11 3.60747 11H5.61162C5.87884 11 6.11266 11.1 6.31307 11.3C6.51349 11.5 6.6137 11.7333 6.6137 12V14C6.6137 14.6667 6.27967 15 5.61162 15H3.60747C2.93942 15 2.6054 14.6667 2.6054 14V12ZM6.31307 16.3C6.51349 16.5 6.6137 16.7333 6.6137 17V19C6.6137 19.6667 6.27967 20 5.61162 20H3.60747C2.93942 20 2.6054 19.6667 2.6054 19V17C2.6054 16.3333 2.93942 16 3.60747 16H5.61162C5.71183 16 5.79533 16.0167 5.86214 16.05C6.02915 16.0833 6.17946 16.1667 6.31307 16.3ZM7.91639 16.3C8.08341 16.1 8.31722 16 8.61785 16H10.622C10.8892 16 11.123 16.1 11.3234 16.3C11.5239 16.5 11.6241 16.7333 11.6241 17V19C11.6241 19.3 11.5239 19.55 11.3234 19.75C11.123 19.9167 10.8892 20 10.622 20H8.61785C7.9498 20 7.61577 19.6667 7.61577 19V17C7.61577 16.7333 7.71598 16.5 7.91639 16.3ZM20.1417 17.1C20.0081 16.9 19.8244 16.75 19.5906 16.65L18.6887 16.45V18.75H19.2398C19.4737 18.75 19.7075 18.6667 19.9413 18.5C20.1417 18.3333 20.2586 18.1167 20.292 17.85C20.3588 17.6167 20.3087 17.3667 20.1417 17.1ZM17.3359 12.3H16.7848C16.5509 12.3 16.3171 12.3833 16.0833 12.55C15.9163 12.75 15.7994 12.9667 15.7326 13.2C15.6992 13.4667 15.7493 13.7167 15.8829 13.95C16.0499 14.15 16.2503 14.3 16.4841 14.4L17.3359 14.6V12.3ZM23.9496 7C23.8828 5.63333 23.3985 4.46667 22.4966 3.5C21.7951 2.76667 20.9434 2.3 19.9413 2.1V4C19.9413 4.56667 19.7409 5.03333 19.3401 5.4V5.45C18.9392 5.81667 18.4716 6 17.9371 6C17.3693 6 16.9184 5.81667 16.5843 5.45L16.5342 5.4C16.1334 5.03333 15.933 4.56667 15.933 4V2H8.0166V4C8.0166 4.56667 7.81619 5.03333 7.41536 5.4V5.45C7.01453 5.81667 6.54689 6 6.01245 6C5.44461 6 4.99367 5.81667 4.65965 5.45L4.60955 5.4C4.20872 5.03333 4.0083 4.56667 4.0083 4V2.1C3.00623 2.26667 2.13776 2.73333 1.40291 3.5C0.467635 4.5 0 5.66667 0 7H23.9496Z" fill="white"/>
</svg>