<svg width="37" height="36" viewBox="0 0 37 36" fill="none" xmlns="http://www.w3.org/2000/svg">
<path d="M36.4443 18.0189C36.4406 21.5834 35.3786 25.0666 33.3929 28.0269C31.4073 30.9872 28.5874 33.2913 25.2908 34.6471C21.9942 36.0029 18.3692 36.3494 14.8754 35.6426C11.3816 34.9359 8.17634 33.2077 5.66586 30.6772C3.15539 28.1466 1.45278 24.9277 0.773856 21.4284C0.0949294 17.9291 0.470261 14.307 1.85227 11.0212C3.23428 7.73549 5.56074 4.93405 8.53674 2.97204C11.5127 1.01003 15.0043 -0.0242077 18.5688 0.00043016C23.3246 0.0320921 27.8746 1.94516 31.2242 5.3215C34.5737 8.69785 36.4505 13.2629 36.4443 18.0189ZM18.4213 2.71932C15.3988 2.72206 12.4451 3.62076 9.93325 5.30183C7.42145 6.9829 5.46439 9.37088 4.30943 12.164C3.15448 14.957 2.85347 18.0298 3.44446 20.9939C4.03545 23.958 5.49191 26.6804 7.62974 28.8169C9.76757 30.9535 12.4908 32.4083 15.4553 32.9975C18.4197 33.5867 21.4923 33.2838 24.2847 32.1272C27.0771 30.9705 29.4639 29.0121 31.1434 26.4992C32.823 23.9864 33.7199 21.0321 33.7208 18.0096C33.7281 15.9989 33.3373 14.0065 32.5709 12.1475C31.8045 10.2885 30.6777 8.59959 29.2554 7.17817C27.8332 5.75676 26.1436 4.63095 24.2841 3.86568C22.4246 3.1004 20.4321 2.7108 18.4213 2.71932Z" fill="#67889F"/>
<path d="M16.2782 17.2401C14.5962 16.3875 13.9741 15.0603 14.2598 13.3461C14.5455 11.6318 15.6976 10.5811 17.6883 10.2539C19.3059 9.9774 20.8819 10.1525 22.1584 11.3C24.0017 12.9405 23.6607 15.512 21.3612 17.2908C22.8681 18.1341 23.8542 19.2862 23.8082 21.1156C23.8285 21.7676 23.7119 22.4166 23.4658 23.0206C23.2198 23.6247 22.8497 24.1704 22.3796 24.6226C20.4487 26.4014 16.5178 26.2124 14.8773 24.2539C13.0017 22.0235 13.5317 19.2216 16.2782 17.2401ZM20.9833 21.1203C20.9833 19.5903 20.1492 18.5166 18.8773 18.4613C17.6054 18.406 16.5731 19.5396 16.5731 20.9728C16.5731 22.406 17.5455 23.5534 18.7943 23.5673C20.0432 23.5811 20.9648 22.6133 20.9833 21.1203ZM16.9188 14.3461C16.9072 14.5993 16.9481 14.8523 17.0388 15.0891C17.1295 15.3258 17.268 15.5413 17.4458 15.7221C17.6236 15.9029 17.8367 16.0451 18.0719 16.1398C18.3071 16.2344 18.5593 16.2796 18.8128 16.2723C19.0662 16.2641 19.3154 16.2054 19.5459 16.0997C19.7764 15.9941 19.9835 15.8435 20.1551 15.6569C20.3267 15.4702 20.4594 15.2512 20.5455 15.0127C20.6315 14.7742 20.6691 14.5209 20.6561 14.2677C20.6619 14.0217 20.6173 13.7771 20.525 13.549C20.4327 13.3209 20.2946 13.1141 20.1193 12.9414C19.944 12.7686 19.7352 12.6337 19.5057 12.5448C19.2763 12.4559 19.031 12.4149 18.7851 12.4244C18.5314 12.4095 18.2774 12.4495 18.0404 12.5416C17.8035 12.6337 17.5892 12.7757 17.4121 12.9581C17.235 13.1404 17.0993 13.3588 17.0141 13.5983C16.929 13.8378 16.8965 14.0928 16.9188 14.3461Z" fill="#67889F"/>
<path d="M12.2694 25.8069H9.57353V14.5626L5.73021 16.7884C5.73021 15.7792 5.69335 15.0557 5.75786 14.346C5.75786 14.1525 6.06201 13.9221 6.28321 13.8115C7.78551 13.0465 9.08966 12.0926 9.91915 10.5857C10.0482 10.3553 10.5182 10.2447 10.8408 10.1986C11.3134 10.1657 11.7876 10.1657 12.2602 10.1986L12.2694 25.8069Z" fill="#67889F"/>
<path d="M24.0986 14.6226V12.9267H26.7161V10.2078H28.2876C28.3383 10.2769 28.4028 10.3276 28.412 10.3875C28.5088 11.1986 28.3198 12.2908 28.7714 12.7378C29.2231 13.1848 30.283 12.8253 31.1309 12.8253V14.6087H28.4535V17.217H26.7668V14.6226H24.0986Z" fill="#67889F"/>
</svg>
